<!DOCTYPE svg PUBLIC "-//W3C//DTD SVG 1.1//EN" "http://www.w3.org/Graphics/SVG/1.1/DTD/svg11.dtd">
<svg style="stroke-linecap:square;" xmlns="http://www.w3.org/2000/svg" xmlns:xlink="http://www.w3.org/1999/xlink" width="976" height="409">
<defs><clipPath id="clip-0"><path d="M 0 0 L 976 0 L 976 409 L 0 409 L 0 0 M 0 0"/></clipPath>
<clipPath id="clip-1"><path d="M 590.67 79.33 L 590.67 1055.33 L 181.67 1055.33 L 181.67 79.33 L 590.67 79.33 M 590.67 79.33"/></clipPath>
<clipPath id="clip-2"><path d="M 840.36 -170.36 L 840.36 805.64 L 431.36 805.64 L 431.36 -170.36 L 840.36 -170.36 M 840.36 -170.36"/></clipPath>
<clipPath id="clip-3"><path d="M 1090.06 -420.06 L 1090.06 555.94 L 681.06 555.94 L 681.06 -420.06 L 1090.06 -420.06 M 1090.06 -420.06"/></clipPath>
<clipPath id="clip-4"><path d="M 216.27 147.73 L 216.27 1123.73 L -192.73 1123.73 L -192.73 147.73 L 216.27 147.73 M 216.27 147.73"/></clipPath>
<clipPath id="clip-5"><path d="M 67 41 L 67 323 L 891 323 L 891 41 M 67 41"/></clipPath>
</defs>
<rect x="0" y="0" width="976" height="409" style="fill: rgb(255,255,255);fill-opacity: 1" transform="matrix(1,0,0,1,0,0)" clip-path="url(#clip-0)"/><g transform="matrix(1,0,0,1,0,0)"><text x="452" y="25.85" style="fill: rgb(75,75,109); font-family: sans-serif; font-size: 16px; font-weight: bold; " text-rendering="auto" clip-path="url(#clip-0)">frlemma</text></g><rect x="911" y="208.81" width="55" height="22" style="fill: rgb(255,255,255);fill-opacity: 1" transform="matrix(1,0,0,1,0,0)" clip-path="url(#clip-0)"/><g style="stroke-width: 1.0;stroke: rgb(128,128,128);stroke-opacity: 1; fill: none" transform="matrix(1,0,0,1,0,0)" clip-path="url(#clip-0)"><path d="M 911 213.81 L 911 225.81 C 911 228.57 913.24 230.81 916 230.81 L 961 230.81 C 963.76 230.81 966 228.57 966 225.81 L 966 213.81 C 966 211.05 963.76 208.81 961 208.81 L 916 208.81 C 913.24 208.81 911 211.05 911 213.81 M 911 213.81"/></g><g style="fill: rgb(47,126,216);fill-opacity: 1; stroke: none" transform="matrix(1,0,0,1,0,0)" clip-path="url(#clip-0)"><path d="M 915 215.31 L 915 224.31 C 915 225.69 916.12 226.81 917.5 226.81 L 925.5 226.81 C 926.88 226.81 928 225.69 928 224.31 L 928 215.31 C 928 213.93 926.88 212.81 925.5 212.81 L 917.5 212.81 C 916.12 212.81 915 213.93 915 215.31 M 915 215.31"/></g><g transform="matrix(1,0,0,1,0,0)"><text x="932" y="223.62" style="fill: rgb(39,75,109); font-family: sans-serif; font-size: 11px; font-weight: bold; " text-rendering="auto" clip-path="url(#clip-0)">mais</text></g><rect x="67" y="41" width="824" height="282" style="fill: rgb(255,255,255);fill-opacity: 1" transform="matrix(1,0,0,1,0,0)" clip-path="url(#clip-0)"/><line x1="67" y1="323" x2="891" y2="323" style="stroke-width: 1.0;stroke: rgb(192,208,224);stroke-opacity: 1;" transform="matrix(1,0,0,1,0,0)" clip-path="url(#clip-0)"/><g transform="matrix(0,-1,1,0,-79.333328,590.666672)"><text x="234.67" y="338.81" style="fill: rgb(102,102,102); font-family: sans-serif; font-size: 11px; font-weight: bold; " text-rendering="auto" clip-path="url(#clip-1)">Nul</text></g><line x1="380.52" y1="328" x2="380.52" y2="323" style="stroke-width: 1.0;stroke: rgb(192,208,224);stroke-opacity: 1;" transform="matrix(1,0,0,1,0,0)" clip-path="url(#clip-0)"/><line x1="130.82" y1="328" x2="130.82" y2="323" style="stroke-width: 1.0;stroke: rgb(192,208,224);stroke-opacity: 1;" transform="matrix(1,0,0,1,0,0)" clip-path="url(#clip-0)"/><g transform="matrix(0,-1,1,0,170.363647,840.363647)"><text x="463.36" y="338.81" style="fill: rgb(102,102,102); font-family: sans-serif; font-size: 11px; font-weight: bold; " text-rendering="auto" clip-path="url(#clip-2)">Moyen</text></g><line x1="630.21" y1="328" x2="630.21" y2="323" style="stroke-width: 1.0;stroke: rgb(192,208,224);stroke-opacity: 1;" transform="matrix(1,0,0,1,0,0)" clip-path="url(#clip-0)"/><g transform="matrix(0,-1,1,0,420.060608,1090.060608)"><text x="730.06" y="338.81" style="fill: rgb(102,102,102); font-family: sans-serif; font-size: 11px; font-weight: bold; " text-rendering="auto" clip-path="url(#clip-3)">Bon</text></g><line x1="879.91" y1="328" x2="879.91" y2="323" style="stroke-width: 1.0;stroke: rgb(192,208,224);stroke-opacity: 1;" transform="matrix(1,0,0,1,0,0)" clip-path="url(#clip-0)"/><g transform="matrix(1,0,0,1,0,0)"><text x="454.5" y="391.92" style="fill: rgb(77,117,158); font-family: sans-serif; font-size: 15px; font-weight: bold; " text-rendering="auto" clip-path="url(#clip-0)">Partie</text></g><g transform="matrix(1,0,0,1,0,0)"><text x="48" y="271.33" style="fill: rgb(102,102,102); font-family: sans-serif; font-size: 11px; font-weight: bold; " text-rendering="auto" clip-path="url(#clip-0)">-3</text></g><g transform="matrix(1,0,0,1,0,0)"><text x="48" y="240.32" style="fill: rgb(102,102,102); font-family: sans-serif; font-size: 11px; font-weight: bold; " text-rendering="auto" clip-path="url(#clip-0)">-2</text></g><g transform="matrix(1,0,0,1,0,0)"><text x="48" y="209.32" style="fill: rgb(102,102,102); font-family: sans-serif; font-size: 11px; font-weight: bold; " text-rendering="auto" clip-path="url(#clip-0)">-1</text></g><g transform="matrix(1,0,0,1,0,0)"><text x="53" y="178.32" style="fill: rgb(102,102,102); font-family: sans-serif; font-size: 11px; font-weight: bold; " text-rendering="auto" clip-path="url(#clip-0)">0</text></g><g transform="matrix(1,0,0,1,0,0)"><text x="53" y="147.31" style="fill: rgb(102,102,102); font-family: sans-serif; font-size: 11px; font-weight: bold; " text-rendering="auto" clip-path="url(#clip-0)">1</text></g><g transform="matrix(1,0,0,1,0,0)"><text x="53" y="116.31" style="fill: rgb(102,102,102); font-family: sans-serif; font-size: 11px; font-weight: bold; " text-rendering="auto" clip-path="url(#clip-0)">2</text></g><g transform="matrix(1,0,0,1,0,0)"><text x="53" y="85.3" style="fill: rgb(102,102,102); font-family: sans-serif; font-size: 11px; font-weight: bold; " text-rendering="auto" clip-path="url(#clip-0)">3</text></g><g transform="matrix(0,-1,1,0,-147.730469,216.269531)"><text x="10.77" y="187.19" style="fill: rgb(77,117,158); font-family: sans-serif; font-size: 15px; font-weight: bold; " text-rendering="auto" clip-path="url(#clip-4)">Score</text></g><line x1="67" y1="267.52" x2="891" y2="267.52" style="stroke-width: 1.0;stroke: rgb(192,192,192);stroke-opacity: 1;" transform="matrix(1,0,0,1,0,0)" clip-path="url(#clip-5)"/><line x1="67" y1="236.52" x2="891" y2="236.52" style="stroke-width: 1.0;stroke: rgb(192,192,192);stroke-opacity: 1;" transform="matrix(1,0,0,1,0,0)" clip-path="url(#clip-5)"/><line x1="67" y1="205.51" x2="891" y2="205.51" style="stroke-width: 1.0;stroke: rgb(192,192,192);stroke-opacity: 1;" transform="matrix(1,0,0,1,0,0)" clip-path="url(#clip-5)"/><line x1="67" y1="174.51" x2="891" y2="174.51" style="stroke-width: 1.0;stroke: rgb(192,192,192);stroke-opacity: 1;" transform="matrix(1,0,0,1,0,0)" clip-path="url(#clip-5)"/><line x1="67" y1="143.5" x2="891" y2="143.5" style="stroke-width: 1.0;stroke: rgb(192,192,192);stroke-opacity: 1;" transform="matrix(1,0,0,1,0,0)" clip-path="url(#clip-5)"/><line x1="67" y1="112.5" x2="891" y2="112.5" style="stroke-width: 1.0;stroke: rgb(192,192,192);stroke-opacity: 1;" transform="matrix(1,0,0,1,0,0)" clip-path="url(#clip-5)"/><line x1="67" y1="81.5" x2="891" y2="81.5" style="stroke-width: 1.0;stroke: rgb(192,192,192);stroke-opacity: 1;" transform="matrix(1,0,0,1,0,0)" clip-path="url(#clip-5)"/><rect x="168.27" y="163.44" width="174.79" height="11.07" style="fill: rgb(47,126,216);fill-opacity: 1" transform="matrix(1,0,0,1,0,0)" clip-path="url(#clip-5)"/><rect x="417.97" y="64.83" width="174.79" height="109.67" style="fill: rgb(47,126,216);fill-opacity: 1" transform="matrix(1,0,0,1,0,0)" clip-path="url(#clip-5)"/><rect x="667.67" y="174.51" width="174.79" height="123.38" style="fill: rgb(47,126,216);fill-opacity: 1" transform="matrix(1,0,0,1,0,0)" clip-path="url(#clip-5)"/><line x1="67" y1="112.5" x2="891" y2="112.5" style="stroke-width: 0.5;stroke: rgb(255,0,0);stroke-opacity: 1;" transform="matrix(1,0,0,1,0,0)" clip-path="url(#clip-5)"/><g transform="matrix(1,0,0,1,0,0)"><text x="823" y="107.38" style="fill: rgb(0,0,0); font-family: sans-serif; font-size: 9px; " text-rendering="auto" clip-path="url(#clip-5)">Banalité : 2.0</text></g><line x1="67" y1="236.52" x2="891" y2="236.52" style="stroke-width: 0.5;stroke: rgb(255,0,0);stroke-opacity: 1;" transform="matrix(1,0,0,1,0,0)" clip-path="url(#clip-5)"/><g transform="matrix(1,0,0,1,0,0)"><text x="820" y="231.39" style="fill: rgb(0,0,0); font-family: sans-serif; font-size: 9px; " text-rendering="auto" clip-path="url(#clip-5)">Banalité : -2.0</text></g></svg>
