<!DOCTYPE svg PUBLIC "-//W3C//DTD SVG 1.1//EN" "http://www.w3.org/Graphics/SVG/1.1/DTD/svg11.dtd">
<svg style="stroke-linecap:square;" xmlns="http://www.w3.org/2000/svg" xmlns:xlink="http://www.w3.org/1999/xlink" width="976" height="409">
<defs><clipPath id="clip-0"><path d="M 0 0 L 976 0 L 976 409 L 0 409 L 0 0 M 0 0"/></clipPath>
<clipPath id="clip-1"><path d="M 521.67 148.33 L 521.67 1124.33 L 112.67 1124.33 L 112.67 148.33 L 521.67 148.33 M 521.67 148.33"/></clipPath>
<clipPath id="clip-2"><path d="M 785 -115 L 785 861 L 376 861 L 376 -115 L 785 -115 M 785 -115"/></clipPath>
<clipPath id="clip-3"><path d="M 1048.33 -378.33 L 1048.33 597.67 L 639.33 597.67 L 639.33 -378.33 L 1048.33 -378.33 M 1048.33 -378.33"/></clipPath>
<clipPath id="clip-4"><path d="M 204.27 159.73 L 204.27 1135.73 L -204.73 1135.73 L -204.73 159.73 L 204.27 159.73 M 204.27 159.73"/></clipPath>
<clipPath id="clip-5"><path d="M 55 41 L 55 323 L 845 323 L 845 41 M 55 41"/></clipPath>
</defs>
<rect x="0" y="0" width="976" height="409" style="fill: rgb(255,255,255);fill-opacity: 1" transform="matrix(1,0,0,1,0,0)" clip-path="url(#clip-0)"/><g transform="matrix(1,0,0,1,0,0)"><text x="452" y="25.85" style="fill: rgb(75,75,109); font-family: sans-serif; font-size: 16px; font-weight: bold; " text-rendering="auto" clip-path="url(#clip-0)">frlemma</text></g><rect x="865" y="208.81" width="101" height="22" style="fill: rgb(255,255,255);fill-opacity: 1" transform="matrix(1,0,0,1,0,0)" clip-path="url(#clip-0)"/><g style="stroke-width: 1.0;stroke: rgb(128,128,128);stroke-opacity: 1; fill: none" transform="matrix(1,0,0,1,0,0)" clip-path="url(#clip-0)"><path d="M 865 213.81 L 865 225.81 C 865 228.57 867.24 230.81 870 230.81 L 961 230.81 C 963.76 230.81 966 228.57 966 225.81 L 966 213.81 C 966 211.05 963.76 208.81 961 208.81 L 870 208.81 C 867.24 208.81 865 211.05 865 213.81 M 865 213.81"/></g><g style="fill: rgb(47,126,216);fill-opacity: 1; stroke: none" transform="matrix(1,0,0,1,0,0)" clip-path="url(#clip-0)"><path d="M 869 215.31 L 869 224.31 C 869 225.69 870.12 226.81 871.5 226.81 L 879.5 226.81 C 880.88 226.81 882 225.69 882 224.31 L 882 215.31 C 882 213.93 880.88 212.81 879.5 212.81 L 871.5 212.81 C 870.12 212.81 869 213.93 869 215.31 M 869 215.31"/></g><g transform="matrix(1,0,0,1,0,0)"><text x="886" y="223.62" style="fill: rgb(39,75,109); font-family: sans-serif; font-size: 11px; font-weight: bold; " text-rendering="auto" clip-path="url(#clip-0)">personnage</text></g><rect x="55" y="41" width="790" height="282" style="fill: rgb(255,255,255);fill-opacity: 1" transform="matrix(1,0,0,1,0,0)" clip-path="url(#clip-0)"/><line x1="55" y1="323" x2="845" y2="323" style="stroke-width: 1.0;stroke: rgb(192,208,224);stroke-opacity: 1;" transform="matrix(1,0,0,1,0,0)" clip-path="url(#clip-0)"/><g transform="matrix(0,-1,1,0,-148.333328,521.666672)"><text x="165.67" y="338.81" style="fill: rgb(102,102,102); font-family: sans-serif; font-size: 11px; font-weight: bold; " text-rendering="auto" clip-path="url(#clip-1)">Nul</text></g><line x1="318.33" y1="328" x2="318.33" y2="323" style="stroke-width: 1.0;stroke: rgb(192,208,224);stroke-opacity: 1;" transform="matrix(1,0,0,1,0,0)" clip-path="url(#clip-0)"/><line x1="55" y1="328" x2="55" y2="323" style="stroke-width: 1.0;stroke: rgb(192,208,224);stroke-opacity: 1;" transform="matrix(1,0,0,1,0,0)" clip-path="url(#clip-0)"/><g transform="matrix(0,-1,1,0,115,785)"><text x="408" y="338.81" style="fill: rgb(102,102,102); font-family: sans-serif; font-size: 11px; font-weight: bold; " text-rendering="auto" clip-path="url(#clip-2)">Moyen</text></g><line x1="581.67" y1="328" x2="581.67" y2="323" style="stroke-width: 1.0;stroke: rgb(192,208,224);stroke-opacity: 1;" transform="matrix(1,0,0,1,0,0)" clip-path="url(#clip-0)"/><g transform="matrix(0,-1,1,0,378.333313,1048.333313)"><text x="688.33" y="338.81" style="fill: rgb(102,102,102); font-family: sans-serif; font-size: 11px; font-weight: bold; " text-rendering="auto" clip-path="url(#clip-3)">Bon</text></g><line x1="845" y1="328" x2="845" y2="323" style="stroke-width: 1.0;stroke: rgb(192,208,224);stroke-opacity: 1;" transform="matrix(1,0,0,1,0,0)" clip-path="url(#clip-0)"/><g transform="matrix(1,0,0,1,0,0)"><text x="425.5" y="391.92" style="fill: rgb(77,117,158); font-family: sans-serif; font-size: 15px; font-weight: bold; " text-rendering="auto" clip-path="url(#clip-0)">Partie</text></g><g transform="matrix(1,0,0,1,0,0)"><text x="36" y="304.86" style="fill: rgb(102,102,102); font-family: sans-serif; font-size: 11px; font-weight: bold; " text-rendering="auto" clip-path="url(#clip-0)">-8</text></g><g transform="matrix(1,0,0,1,0,0)"><text x="36" y="283.51" style="fill: rgb(102,102,102); font-family: sans-serif; font-size: 11px; font-weight: bold; " text-rendering="auto" clip-path="url(#clip-0)">-7</text></g><g transform="matrix(1,0,0,1,0,0)"><text x="36" y="262.16" style="fill: rgb(102,102,102); font-family: sans-serif; font-size: 11px; font-weight: bold; " text-rendering="auto" clip-path="url(#clip-0)">-6</text></g><g transform="matrix(1,0,0,1,0,0)"><text x="36" y="240.82" style="fill: rgb(102,102,102); font-family: sans-serif; font-size: 11px; font-weight: bold; " text-rendering="auto" clip-path="url(#clip-0)">-5</text></g><g transform="matrix(1,0,0,1,0,0)"><text x="36" y="219.47" style="fill: rgb(102,102,102); font-family: sans-serif; font-size: 11px; font-weight: bold; " text-rendering="auto" clip-path="url(#clip-0)">-4</text></g><g transform="matrix(1,0,0,1,0,0)"><text x="36" y="198.12" style="fill: rgb(102,102,102); font-family: sans-serif; font-size: 11px; font-weight: bold; " text-rendering="auto" clip-path="url(#clip-0)">-3</text></g><g transform="matrix(1,0,0,1,0,0)"><text x="36" y="176.78" style="fill: rgb(102,102,102); font-family: sans-serif; font-size: 11px; font-weight: bold; " text-rendering="auto" clip-path="url(#clip-0)">-2</text></g><g transform="matrix(1,0,0,1,0,0)"><text x="36" y="155.43" style="fill: rgb(102,102,102); font-family: sans-serif; font-size: 11px; font-weight: bold; " text-rendering="auto" clip-path="url(#clip-0)">-1</text></g><g transform="matrix(1,0,0,1,0,0)"><text x="41" y="134.08" style="fill: rgb(102,102,102); font-family: sans-serif; font-size: 11px; font-weight: bold; " text-rendering="auto" clip-path="url(#clip-0)">0</text></g><g transform="matrix(1,0,0,1,0,0)"><text x="41" y="112.74" style="fill: rgb(102,102,102); font-family: sans-serif; font-size: 11px; font-weight: bold; " text-rendering="auto" clip-path="url(#clip-0)">1</text></g><g transform="matrix(1,0,0,1,0,0)"><text x="41" y="91.39" style="fill: rgb(102,102,102); font-family: sans-serif; font-size: 11px; font-weight: bold; " text-rendering="auto" clip-path="url(#clip-0)">2</text></g><g transform="matrix(1,0,0,1,0,0)"><text x="41" y="70.04" style="fill: rgb(102,102,102); font-family: sans-serif; font-size: 11px; font-weight: bold; " text-rendering="auto" clip-path="url(#clip-0)">3</text></g><g transform="matrix(0,-1,1,0,-159.730469,204.269531)"><text x="-1.23" y="187.19" style="fill: rgb(77,117,158); font-family: sans-serif; font-size: 15px; font-weight: bold; " text-rendering="auto" clip-path="url(#clip-4)">Score</text></g><line x1="55" y1="301.05" x2="845" y2="301.05" style="stroke-width: 1.0;stroke: rgb(192,192,192);stroke-opacity: 1;" transform="matrix(1,0,0,1,0,0)" clip-path="url(#clip-5)"/><line x1="55" y1="279.7" x2="845" y2="279.7" style="stroke-width: 1.0;stroke: rgb(192,192,192);stroke-opacity: 1;" transform="matrix(1,0,0,1,0,0)" clip-path="url(#clip-5)"/><line x1="55" y1="258.36" x2="845" y2="258.36" style="stroke-width: 1.0;stroke: rgb(192,192,192);stroke-opacity: 1;" transform="matrix(1,0,0,1,0,0)" clip-path="url(#clip-5)"/><line x1="55" y1="237.01" x2="845" y2="237.01" style="stroke-width: 1.0;stroke: rgb(192,192,192);stroke-opacity: 1;" transform="matrix(1,0,0,1,0,0)" clip-path="url(#clip-5)"/><line x1="55" y1="215.66" x2="845" y2="215.66" style="stroke-width: 1.0;stroke: rgb(192,192,192);stroke-opacity: 1;" transform="matrix(1,0,0,1,0,0)" clip-path="url(#clip-5)"/><line x1="55" y1="194.32" x2="845" y2="194.32" style="stroke-width: 1.0;stroke: rgb(192,192,192);stroke-opacity: 1;" transform="matrix(1,0,0,1,0,0)" clip-path="url(#clip-5)"/><line x1="55" y1="172.97" x2="845" y2="172.97" style="stroke-width: 1.0;stroke: rgb(192,192,192);stroke-opacity: 1;" transform="matrix(1,0,0,1,0,0)" clip-path="url(#clip-5)"/><line x1="55" y1="151.62" x2="845" y2="151.62" style="stroke-width: 1.0;stroke: rgb(192,192,192);stroke-opacity: 1;" transform="matrix(1,0,0,1,0,0)" clip-path="url(#clip-5)"/><line x1="55" y1="130.28" x2="845" y2="130.28" style="stroke-width: 1.0;stroke: rgb(192,192,192);stroke-opacity: 1;" transform="matrix(1,0,0,1,0,0)" clip-path="url(#clip-5)"/><line x1="55" y1="108.93" x2="845" y2="108.93" style="stroke-width: 1.0;stroke: rgb(192,192,192);stroke-opacity: 1;" transform="matrix(1,0,0,1,0,0)" clip-path="url(#clip-5)"/><line x1="55" y1="87.58" x2="845" y2="87.58" style="stroke-width: 1.0;stroke: rgb(192,192,192);stroke-opacity: 1;" transform="matrix(1,0,0,1,0,0)" clip-path="url(#clip-5)"/><line x1="55" y1="66.24" x2="845" y2="66.24" style="stroke-width: 1.0;stroke: rgb(192,192,192);stroke-opacity: 1;" transform="matrix(1,0,0,1,0,0)" clip-path="url(#clip-5)"/><rect x="94.5" y="130.28" width="184.33" height="179.91" style="fill: rgb(47,126,216);fill-opacity: 1" transform="matrix(1,0,0,1,0,0)" clip-path="url(#clip-5)"/><rect x="357.83" y="53.82" width="184.33" height="76.46" style="fill: rgb(47,126,216);fill-opacity: 1" transform="matrix(1,0,0,1,0,0)" clip-path="url(#clip-5)"/><rect x="621.17" y="118.03" width="184.33" height="12.24" style="fill: rgb(47,126,216);fill-opacity: 1" transform="matrix(1,0,0,1,0,0)" clip-path="url(#clip-5)"/><line x1="55" y1="87.58" x2="845" y2="87.58" style="stroke-width: 0.5;stroke: rgb(255,0,0);stroke-opacity: 1;" transform="matrix(1,0,0,1,0,0)" clip-path="url(#clip-5)"/><g transform="matrix(1,0,0,1,0,0)"><text x="777" y="82.46" style="fill: rgb(0,0,0); font-family: sans-serif; font-size: 9px; " text-rendering="auto" clip-path="url(#clip-5)">Banalité : 2.0</text></g><line x1="55" y1="172.97" x2="845" y2="172.97" style="stroke-width: 0.5;stroke: rgb(255,0,0);stroke-opacity: 1;" transform="matrix(1,0,0,1,0,0)" clip-path="url(#clip-5)"/><g transform="matrix(1,0,0,1,0,0)"><text x="774" y="167.85" style="fill: rgb(0,0,0); font-family: sans-serif; font-size: 9px; " text-rendering="auto" clip-path="url(#clip-5)">Banalité : -2.0</text></g></svg>
