<!DOCTYPE svg PUBLIC "-//W3C//DTD SVG 1.1//EN" "http://www.w3.org/Graphics/SVG/1.1/DTD/svg11.dtd">
<svg style="stroke-linecap:square;" xmlns="http://www.w3.org/2000/svg" xmlns:xlink="http://www.w3.org/1999/xlink" width="976" height="409">
<defs><clipPath id="clip-0"><path d="M 0 0 L 976 0 L 976 409 L 0 409 L 0 0 M 0 0"/></clipPath>
<clipPath id="clip-1"><path d="M 476.25 245.75 L 476.25 1221.75 L 67.25 1221.75 L 67.25 245.75 L 476.25 245.75 M 476.25 245.75"/></clipPath>
<clipPath id="clip-2"><path d="M 556.75 165.25 L 556.75 1141.25 L 147.75 1141.25 L 147.75 165.25 L 556.75 165.25 M 556.75 165.25"/></clipPath>
<clipPath id="clip-3"><path d="M 637.25 84.75 L 637.25 1060.75 L 228.25 1060.75 L 228.25 84.75 L 637.25 84.75 M 637.25 84.75"/></clipPath>
<clipPath id="clip-4"><path d="M 717.75 4.25 L 717.75 980.25 L 308.75 980.25 L 308.75 4.25 L 717.75 4.25 M 717.75 4.25"/></clipPath>
<clipPath id="clip-5"><path d="M 798.25 -76.25 L 798.25 899.75 L 389.25 899.75 L 389.25 -76.25 L 798.25 -76.25 M 798.25 -76.25"/></clipPath>
<clipPath id="clip-6"><path d="M 878.75 -156.75 L 878.75 819.25 L 469.75 819.25 L 469.75 -156.75 L 878.75 -156.75 M 878.75 -156.75"/></clipPath>
<clipPath id="clip-7"><path d="M 959.25 -237.25 L 959.25 738.75 L 550.25 738.75 L 550.25 -237.25 L 959.25 -237.25 M 959.25 -237.25"/></clipPath>
<clipPath id="clip-8"><path d="M 1039.75 -317.75 L 1039.75 658.25 L 630.75 658.25 L 630.75 -317.75 L 1039.75 -317.75 M 1039.75 -317.75"/></clipPath>
<clipPath id="clip-9"><path d="M 1120.25 -398.25 L 1120.25 577.75 L 711.25 577.75 L 711.25 -398.25 L 1120.25 -398.25 M 1120.25 -398.25"/></clipPath>
<clipPath id="clip-10"><path d="M 1200.75 -478.75 L 1200.75 497.25 L 791.75 497.25 L 791.75 -478.75 L 1200.75 -478.75 M 1200.75 -478.75"/></clipPath>
<clipPath id="clip-11"><path d="M 217.27 172.73 L 217.27 1148.73 L -191.73 1148.73 L -191.73 172.73 L 217.27 172.73 M 217.27 172.73"/></clipPath>
<clipPath id="clip-12"><path d="M 75 41 L 75 349 L 880 349 L 880 41 M 75 41"/></clipPath>
</defs>
<rect x="0" y="0" width="976" height="409" style="fill: rgb(255,255,255);fill-opacity: 1" transform="matrix(1,0,0,1,0,0)" clip-path="url(#clip-0)"/><g transform="matrix(1,0,0,1,0,0)"><text x="452" y="25.85" style="fill: rgb(75,75,109); font-family: sans-serif; font-size: 16px; font-weight: bold; " text-rendering="auto" clip-path="url(#clip-0)">frlemma</text></g><rect x="900" y="208.81" width="66" height="22" style="fill: rgb(255,255,255);fill-opacity: 1" transform="matrix(1,0,0,1,0,0)" clip-path="url(#clip-0)"/><g style="stroke-width: 1.0;stroke: rgb(128,128,128);stroke-opacity: 1; fill: none" transform="matrix(1,0,0,1,0,0)" clip-path="url(#clip-0)"><path d="M 900 213.81 L 900 225.81 C 900 228.57 902.24 230.81 905 230.81 L 961 230.81 C 963.76 230.81 966 228.57 966 225.81 L 966 213.81 C 966 211.05 963.76 208.81 961 208.81 L 905 208.81 C 902.24 208.81 900 211.05 900 213.81 M 900 213.81"/></g><g style="fill: rgb(47,126,216);fill-opacity: 1; stroke: none" transform="matrix(1,0,0,1,0,0)" clip-path="url(#clip-0)"><path d="M 904 215.31 L 904 224.31 C 904 225.69 905.12 226.81 906.5 226.81 L 914.5 226.81 C 915.88 226.81 917 225.69 917 224.31 L 917 215.31 C 917 213.93 915.88 212.81 914.5 212.81 L 906.5 212.81 C 905.12 212.81 904 213.93 904 215.31 M 904 215.31"/></g><g transform="matrix(1,0,0,1,0,0)"><text x="921" y="223.62" style="fill: rgb(39,75,109); font-family: sans-serif; font-size: 11px; font-weight: bold; " text-rendering="auto" clip-path="url(#clip-0)">acteur</text></g><rect x="75" y="41" width="805" height="308" style="fill: rgb(255,255,255);fill-opacity: 1" transform="matrix(1,0,0,1,0,0)" clip-path="url(#clip-0)"/><line x1="75" y1="349" x2="880" y2="349" style="stroke-width: 1.0;stroke: rgb(192,208,224);stroke-opacity: 1;" transform="matrix(1,0,0,1,0,0)" clip-path="url(#clip-0)"/><g transform="matrix(0,-1,1,0,-245.75,476.25)"><text x="107.25" y="364.81" style="fill: rgb(102,102,102); font-family: sans-serif; font-size: 11px; font-weight: bold; " text-rendering="auto" clip-path="url(#clip-1)">1</text></g><line x1="155.5" y1="354" x2="155.5" y2="349" style="stroke-width: 1.0;stroke: rgb(192,208,224);stroke-opacity: 1;" transform="matrix(1,0,0,1,0,0)" clip-path="url(#clip-0)"/><line x1="75" y1="354" x2="75" y2="349" style="stroke-width: 1.0;stroke: rgb(192,208,224);stroke-opacity: 1;" transform="matrix(1,0,0,1,0,0)" clip-path="url(#clip-0)"/><g transform="matrix(0,-1,1,0,-165.25,556.75)"><text x="179.75" y="364.81" style="fill: rgb(102,102,102); font-family: sans-serif; font-size: 11px; font-weight: bold; " text-rendering="auto" clip-path="url(#clip-2)">10</text></g><line x1="236" y1="354" x2="236" y2="349" style="stroke-width: 1.0;stroke: rgb(192,208,224);stroke-opacity: 1;" transform="matrix(1,0,0,1,0,0)" clip-path="url(#clip-0)"/><g transform="matrix(0,-1,1,0,-84.75,637.25)"><text x="268.25" y="364.81" style="fill: rgb(102,102,102); font-family: sans-serif; font-size: 11px; font-weight: bold; " text-rendering="auto" clip-path="url(#clip-3)">2</text></g><line x1="316.5" y1="354" x2="316.5" y2="349" style="stroke-width: 1.0;stroke: rgb(192,208,224);stroke-opacity: 1;" transform="matrix(1,0,0,1,0,0)" clip-path="url(#clip-0)"/><g transform="matrix(0,-1,1,0,-4.25,717.75)"><text x="348.75" y="364.81" style="fill: rgb(102,102,102); font-family: sans-serif; font-size: 11px; font-weight: bold; " text-rendering="auto" clip-path="url(#clip-4)">3</text></g><line x1="397" y1="354" x2="397" y2="349" style="stroke-width: 1.0;stroke: rgb(192,208,224);stroke-opacity: 1;" transform="matrix(1,0,0,1,0,0)" clip-path="url(#clip-0)"/><g transform="matrix(0,-1,1,0,76.25,798.25)"><text x="429.25" y="364.81" style="fill: rgb(102,102,102); font-family: sans-serif; font-size: 11px; font-weight: bold; " text-rendering="auto" clip-path="url(#clip-5)">4</text></g><line x1="477.5" y1="354" x2="477.5" y2="349" style="stroke-width: 1.0;stroke: rgb(192,208,224);stroke-opacity: 1;" transform="matrix(1,0,0,1,0,0)" clip-path="url(#clip-0)"/><g transform="matrix(0,-1,1,0,156.75,878.75)"><text x="509.75" y="364.81" style="fill: rgb(102,102,102); font-family: sans-serif; font-size: 11px; font-weight: bold; " text-rendering="auto" clip-path="url(#clip-6)">5</text></g><line x1="558" y1="354" x2="558" y2="349" style="stroke-width: 1.0;stroke: rgb(192,208,224);stroke-opacity: 1;" transform="matrix(1,0,0,1,0,0)" clip-path="url(#clip-0)"/><g transform="matrix(0,-1,1,0,237.25,959.25)"><text x="590.25" y="364.81" style="fill: rgb(102,102,102); font-family: sans-serif; font-size: 11px; font-weight: bold; " text-rendering="auto" clip-path="url(#clip-7)">6</text></g><line x1="638.5" y1="354" x2="638.5" y2="349" style="stroke-width: 1.0;stroke: rgb(192,208,224);stroke-opacity: 1;" transform="matrix(1,0,0,1,0,0)" clip-path="url(#clip-0)"/><g transform="matrix(0,-1,1,0,317.75,1039.75)"><text x="670.75" y="364.81" style="fill: rgb(102,102,102); font-family: sans-serif; font-size: 11px; font-weight: bold; " text-rendering="auto" clip-path="url(#clip-8)">7</text></g><line x1="719" y1="354" x2="719" y2="349" style="stroke-width: 1.0;stroke: rgb(192,208,224);stroke-opacity: 1;" transform="matrix(1,0,0,1,0,0)" clip-path="url(#clip-0)"/><g transform="matrix(0,-1,1,0,398.25,1120.25)"><text x="751.25" y="364.81" style="fill: rgb(102,102,102); font-family: sans-serif; font-size: 11px; font-weight: bold; " text-rendering="auto" clip-path="url(#clip-9)">8</text></g><line x1="799.5" y1="354" x2="799.5" y2="349" style="stroke-width: 1.0;stroke: rgb(192,208,224);stroke-opacity: 1;" transform="matrix(1,0,0,1,0,0)" clip-path="url(#clip-0)"/><g transform="matrix(0,-1,1,0,478.75,1200.75)"><text x="831.75" y="364.81" style="fill: rgb(102,102,102); font-family: sans-serif; font-size: 11px; font-weight: bold; " text-rendering="auto" clip-path="url(#clip-10)">9</text></g><line x1="880" y1="354" x2="880" y2="349" style="stroke-width: 1.0;stroke: rgb(192,208,224);stroke-opacity: 1;" transform="matrix(1,0,0,1,0,0)" clip-path="url(#clip-0)"/><g transform="matrix(1,0,0,1,0,0)"><text x="453" y="391.92" style="fill: rgb(77,117,158); font-family: sans-serif; font-size: 15px; font-weight: bold; " text-rendering="auto" clip-path="url(#clip-0)">Partie</text></g><g transform="matrix(1,0,0,1,0,0)"><text x="36" y="331.42" style="fill: rgb(102,102,102); font-family: sans-serif; font-size: 11px; font-weight: bold; " text-rendering="auto" clip-path="url(#clip-0)">-1,25</text></g><g transform="matrix(1,0,0,1,0,0)"><text x="36" y="303.07" style="fill: rgb(102,102,102); font-family: sans-serif; font-size: 11px; font-weight: bold; " text-rendering="auto" clip-path="url(#clip-0)">-1,00</text></g><g transform="matrix(1,0,0,1,0,0)"><text x="36" y="274.71" style="fill: rgb(102,102,102); font-family: sans-serif; font-size: 11px; font-weight: bold; " text-rendering="auto" clip-path="url(#clip-0)">-0,75</text></g><g transform="matrix(1,0,0,1,0,0)"><text x="36" y="246.36" style="fill: rgb(102,102,102); font-family: sans-serif; font-size: 11px; font-weight: bold; " text-rendering="auto" clip-path="url(#clip-0)">-0,50</text></g><g transform="matrix(1,0,0,1,0,0)"><text x="36" y="218" style="fill: rgb(102,102,102); font-family: sans-serif; font-size: 11px; font-weight: bold; " text-rendering="auto" clip-path="url(#clip-0)">-0,25</text></g><g transform="matrix(1,0,0,1,0,0)"><text x="41" y="189.64" style="fill: rgb(102,102,102); font-family: sans-serif; font-size: 11px; font-weight: bold; " text-rendering="auto" clip-path="url(#clip-0)">0,00</text></g><g transform="matrix(1,0,0,1,0,0)"><text x="41" y="161.29" style="fill: rgb(102,102,102); font-family: sans-serif; font-size: 11px; font-weight: bold; " text-rendering="auto" clip-path="url(#clip-0)">0,25</text></g><g transform="matrix(1,0,0,1,0,0)"><text x="41" y="132.93" style="fill: rgb(102,102,102); font-family: sans-serif; font-size: 11px; font-weight: bold; " text-rendering="auto" clip-path="url(#clip-0)">0,50</text></g><g transform="matrix(1,0,0,1,0,0)"><text x="41" y="104.57" style="fill: rgb(102,102,102); font-family: sans-serif; font-size: 11px; font-weight: bold; " text-rendering="auto" clip-path="url(#clip-0)">0,75</text></g><g transform="matrix(1,0,0,1,0,0)"><text x="41" y="76.22" style="fill: rgb(102,102,102); font-family: sans-serif; font-size: 11px; font-weight: bold; " text-rendering="auto" clip-path="url(#clip-0)">1,00</text></g><g transform="matrix(0,-1,1,0,-172.730469,217.269531)"><text x="-1.23" y="200.19" style="fill: rgb(77,117,158); font-family: sans-serif; font-size: 15px; font-weight: bold; " text-rendering="auto" clip-path="url(#clip-11)">Score</text></g><line x1="75" y1="327.62" x2="880" y2="327.62" style="stroke-width: 1.0;stroke: rgb(192,192,192);stroke-opacity: 1;" transform="matrix(1,0,0,1,0,0)" clip-path="url(#clip-12)"/><line x1="75" y1="299.26" x2="880" y2="299.26" style="stroke-width: 1.0;stroke: rgb(192,192,192);stroke-opacity: 1;" transform="matrix(1,0,0,1,0,0)" clip-path="url(#clip-12)"/><line x1="75" y1="270.9" x2="880" y2="270.9" style="stroke-width: 1.0;stroke: rgb(192,192,192);stroke-opacity: 1;" transform="matrix(1,0,0,1,0,0)" clip-path="url(#clip-12)"/><line x1="75" y1="242.55" x2="880" y2="242.55" style="stroke-width: 1.0;stroke: rgb(192,192,192);stroke-opacity: 1;" transform="matrix(1,0,0,1,0,0)" clip-path="url(#clip-12)"/><line x1="75" y1="214.19" x2="880" y2="214.19" style="stroke-width: 1.0;stroke: rgb(192,192,192);stroke-opacity: 1;" transform="matrix(1,0,0,1,0,0)" clip-path="url(#clip-12)"/><line x1="75" y1="185.84" x2="880" y2="185.84" style="stroke-width: 1.0;stroke: rgb(192,192,192);stroke-opacity: 1;" transform="matrix(1,0,0,1,0,0)" clip-path="url(#clip-12)"/><line x1="75" y1="157.48" x2="880" y2="157.48" style="stroke-width: 1.0;stroke: rgb(192,192,192);stroke-opacity: 1;" transform="matrix(1,0,0,1,0,0)" clip-path="url(#clip-12)"/><line x1="75" y1="129.12" x2="880" y2="129.12" style="stroke-width: 1.0;stroke: rgb(192,192,192);stroke-opacity: 1;" transform="matrix(1,0,0,1,0,0)" clip-path="url(#clip-12)"/><line x1="75" y1="100.77" x2="880" y2="100.77" style="stroke-width: 1.0;stroke: rgb(192,192,192);stroke-opacity: 1;" transform="matrix(1,0,0,1,0,0)" clip-path="url(#clip-12)"/><line x1="75" y1="72.41" x2="880" y2="72.41" style="stroke-width: 1.0;stroke: rgb(192,192,192);stroke-opacity: 1;" transform="matrix(1,0,0,1,0,0)" clip-path="url(#clip-12)"/><rect x="87.08" y="185.84" width="56.35" height="119.48" style="fill: rgb(47,126,216);fill-opacity: 1" transform="matrix(1,0,0,1,0,0)" clip-path="url(#clip-12)"/><rect x="167.58" y="115.49" width="56.35" height="70.35" style="fill: rgb(47,126,216);fill-opacity: 1" transform="matrix(1,0,0,1,0,0)" clip-path="url(#clip-12)"/><rect x="248.08" y="185.84" width="56.35" height="149.16" style="fill: rgb(47,126,216);fill-opacity: 1" transform="matrix(1,0,0,1,0,0)" clip-path="url(#clip-12)"/><rect x="328.58" y="185.84" width="56.35" height="101.29" style="fill: rgb(47,126,216);fill-opacity: 1" transform="matrix(1,0,0,1,0,0)" clip-path="url(#clip-12)"/><rect x="409.08" y="185.84" width="56.35" height="149.03" style="fill: rgb(47,126,216);fill-opacity: 1" transform="matrix(1,0,0,1,0,0)" clip-path="url(#clip-12)"/><rect x="489.58" y="185.84" width="56.35" height="73.84" style="fill: rgb(47,126,216);fill-opacity: 1" transform="matrix(1,0,0,1,0,0)" clip-path="url(#clip-12)"/><rect x="570.08" y="55" width="56.35" height="130.84" style="fill: rgb(47,126,216);fill-opacity: 1" transform="matrix(1,0,0,1,0,0)" clip-path="url(#clip-12)"/><rect x="650.58" y="126.63" width="56.35" height="59.21" style="fill: rgb(47,126,216);fill-opacity: 1" transform="matrix(1,0,0,1,0,0)" clip-path="url(#clip-12)"/><rect x="731.08" y="83.27" width="56.35" height="102.57" style="fill: rgb(47,126,216);fill-opacity: 1" transform="matrix(1,0,0,1,0,0)" clip-path="url(#clip-12)"/><rect x="811.58" y="112.48" width="56.35" height="73.35" style="fill: rgb(47,126,216);fill-opacity: 1" transform="matrix(1,0,0,1,0,0)" clip-path="url(#clip-12)"/></svg>
