<!DOCTYPE svg PUBLIC "-//W3C//DTD SVG 1.1//EN" "http://www.w3.org/Graphics/SVG/1.1/DTD/svg11.dtd">
<svg style="stroke-linecap:square;" xmlns="http://www.w3.org/2000/svg" xmlns:xlink="http://www.w3.org/1999/xlink" width="998" height="519">
<defs><clipPath id="clip-0"><path d="M 0 0 L 998 0 L 998 519 L 0 519 L 0 0 M 0 0"/></clipPath>
<clipPath id="clip-1"><path d="M 268.48 217.52 L 268.48 1215.52 L -250.52 1215.52 L -250.52 217.52 L 268.48 217.52 M 268.48 217.52"/></clipPath>
<clipPath id="clip-2"><path d="M 91 72 L 91 414 L 988 414 L 988 72 M 91 72"/></clipPath>
</defs>
<rect x="0" y="0" width="998" height="519" style="fill: rgb(255,255,255);fill-opacity: 1" transform="matrix(1,0,0,1,0,0)" clip-path="url(#clip-0)"/><g transform="matrix(1,0,0,1,0,0)"><text x="288" y="28.55" style="fill: rgb(75,75,109); font-family: Lucida Sans Unicode; font-size: 16px; font-weight: bold; " text-rendering="auto" clip-path="url(#clip-0)">Plan factoriel de l&apos;analyse des correspondances</text></g><g transform="matrix(1,0,0,1,0,0)"><text x="192.5" y="53.13" style="fill: rgb(75,75,109); font-family: Lucida Sans Unicode; font-size: 16px; font-weight: bold; " text-rendering="auto" clip-path="url(#clip-0)">sur la partition SENSCRITIQUE_critique_note du corpus SENSCRITIQUE</text></g><rect x="424" y="484.1" width="150" height="24.9" style="fill: rgb(255,255,255);fill-opacity: 1" transform="matrix(1,0,0,1,0,0)" clip-path="url(#clip-0)"/><g style="stroke-width: 1.0;stroke: rgb(128,128,128);stroke-opacity: 1;; fill: none" transform="matrix(1,0,0,1,0,0)" clip-path="url(#clip-0)"><path d="M 424 489.1 L 424 504 C 424 506.76 426.24 509 429 509 L 569 509 C 571.76 509 574 506.76 574 504 L 574 489.1 C 574 486.34 571.76 484.1 569 484.1 L 429 484.1 C 426.24 484.1 424 486.34 424 489.1 M 424 489.1"/></g><g style="fill: rgb(47,126,216);fill-opacity: 0.352941; stroke: none" transform="matrix(1,0,0,1,0,0)" clip-path="url(#clip-0)"><path d="M 438.84 496.55 C 438.84 498.67 437.12 500.39 435 500.39 C 432.88 500.39 431.16 498.67 431.16 496.55 C 431.16 494.43 432.88 492.71 435 492.71 C 437.12 492.71 438.84 494.43 438.84 496.55 M 438.84 496.55"/></g><g transform="matrix(1,0,0,1,0,0)"><text x="446" y="500.16" style="fill: rgb(39,75,109); font-family: Lucida Sans Unicode; font-size: 11px; font-weight: bold; " text-rendering="auto" clip-path="url(#clip-0)">Lignes</text></g><g style="fill: rgb(255,0,0);fill-opacity: 0.352941; stroke: none" transform="matrix(1,0,0,1,0,0)" clip-path="url(#clip-0)"><path d="M 500 492.47 L 504.08 496.55 L 500 500.63 L 495.92 496.55 M 500 492.47"/></g><g transform="matrix(1,0,0,1,0,0)"><text x="511" y="500.16" style="fill: rgb(39,75,109); font-family: Lucida Sans Unicode; font-size: 11px; font-weight: bold; " text-rendering="auto" clip-path="url(#clip-0)">Colonnes</text></g><rect x="91" y="72" width="897" height="342" style="fill: rgb(255,255,255);fill-opacity: 1" transform="matrix(1,0,0,1,0,0)" clip-path="url(#clip-0)"/><line x1="91" y1="414" x2="988" y2="414" style="stroke-width: 1.0;stroke: rgb(192,208,224);stroke-opacity: 1;" transform="matrix(1,0,0,1,0,0)" clip-path="url(#clip-0)"/><g transform="matrix(1,0,0,1,0,0)"><text x="108.27" y="430.06" style="fill: rgb(102,102,102); font-family: Lucida Sans Unicode; font-size: 11px; font-weight: bold; " text-rendering="auto" clip-path="url(#clip-0)">-0,25</text></g><line x1="125.77" y1="419" x2="125.77" y2="414" style="stroke-width: 1.0;stroke: rgb(192,208,224);stroke-opacity: 1;" transform="matrix(1,0,0,1,0,0)" clip-path="url(#clip-0)"/><g transform="matrix(1,0,0,1,0,0)"><text x="177.23" y="430.06" style="fill: rgb(102,102,102); font-family: Lucida Sans Unicode; font-size: 11px; font-weight: bold; " text-rendering="auto" clip-path="url(#clip-0)">-0,20</text></g><line x1="194.73" y1="419" x2="194.73" y2="414" style="stroke-width: 1.0;stroke: rgb(192,208,224);stroke-opacity: 1;" transform="matrix(1,0,0,1,0,0)" clip-path="url(#clip-0)"/><g transform="matrix(1,0,0,1,0,0)"><text x="246.2" y="430.06" style="fill: rgb(102,102,102); font-family: Lucida Sans Unicode; font-size: 11px; font-weight: bold; " text-rendering="auto" clip-path="url(#clip-0)">-0,15</text></g><line x1="263.7" y1="419" x2="263.7" y2="414" style="stroke-width: 1.0;stroke: rgb(192,208,224);stroke-opacity: 1;" transform="matrix(1,0,0,1,0,0)" clip-path="url(#clip-0)"/><g transform="matrix(1,0,0,1,0,0)"><text x="315.17" y="430.06" style="fill: rgb(102,102,102); font-family: Lucida Sans Unicode; font-size: 11px; font-weight: bold; " text-rendering="auto" clip-path="url(#clip-0)">-0,10</text></g><line x1="332.67" y1="419" x2="332.67" y2="414" style="stroke-width: 1.0;stroke: rgb(192,208,224);stroke-opacity: 1;" transform="matrix(1,0,0,1,0,0)" clip-path="url(#clip-0)"/><g transform="matrix(1,0,0,1,0,0)"><text x="384.14" y="430.06" style="fill: rgb(102,102,102); font-family: Lucida Sans Unicode; font-size: 11px; font-weight: bold; " text-rendering="auto" clip-path="url(#clip-0)">-0,05</text></g><line x1="401.64" y1="419" x2="401.64" y2="414" style="stroke-width: 1.0;stroke: rgb(192,208,224);stroke-opacity: 1;" transform="matrix(1,0,0,1,0,0)" clip-path="url(#clip-0)"/><g transform="matrix(1,0,0,1,0,0)"><text x="456.61" y="430.06" style="fill: rgb(102,102,102); font-family: Lucida Sans Unicode; font-size: 11px; font-weight: bold; " text-rendering="auto" clip-path="url(#clip-0)">0,00</text></g><line x1="470.61" y1="419" x2="470.61" y2="414" style="stroke-width: 1.0;stroke: rgb(192,208,224);stroke-opacity: 1;" transform="matrix(1,0,0,1,0,0)" clip-path="url(#clip-0)"/><g transform="matrix(1,0,0,1,0,0)"><text x="525.58" y="430.06" style="fill: rgb(102,102,102); font-family: Lucida Sans Unicode; font-size: 11px; font-weight: bold; " text-rendering="auto" clip-path="url(#clip-0)">0,05</text></g><line x1="539.58" y1="419" x2="539.58" y2="414" style="stroke-width: 1.0;stroke: rgb(192,208,224);stroke-opacity: 1;" transform="matrix(1,0,0,1,0,0)" clip-path="url(#clip-0)"/><g transform="matrix(1,0,0,1,0,0)"><text x="594.54" y="430.06" style="fill: rgb(102,102,102); font-family: Lucida Sans Unicode; font-size: 11px; font-weight: bold; " text-rendering="auto" clip-path="url(#clip-0)">0,10</text></g><line x1="608.54" y1="419" x2="608.54" y2="414" style="stroke-width: 1.0;stroke: rgb(192,208,224);stroke-opacity: 1;" transform="matrix(1,0,0,1,0,0)" clip-path="url(#clip-0)"/><g transform="matrix(1,0,0,1,0,0)"><text x="663.51" y="430.06" style="fill: rgb(102,102,102); font-family: Lucida Sans Unicode; font-size: 11px; font-weight: bold; " text-rendering="auto" clip-path="url(#clip-0)">0,15</text></g><line x1="677.51" y1="419" x2="677.51" y2="414" style="stroke-width: 1.0;stroke: rgb(192,208,224);stroke-opacity: 1;" transform="matrix(1,0,0,1,0,0)" clip-path="url(#clip-0)"/><g transform="matrix(1,0,0,1,0,0)"><text x="732.48" y="430.06" style="fill: rgb(102,102,102); font-family: Lucida Sans Unicode; font-size: 11px; font-weight: bold; " text-rendering="auto" clip-path="url(#clip-0)">0,20</text></g><line x1="746.48" y1="419" x2="746.48" y2="414" style="stroke-width: 1.0;stroke: rgb(192,208,224);stroke-opacity: 1;" transform="matrix(1,0,0,1,0,0)" clip-path="url(#clip-0)"/><g transform="matrix(1,0,0,1,0,0)"><text x="801.45" y="430.06" style="fill: rgb(102,102,102); font-family: Lucida Sans Unicode; font-size: 11px; font-weight: bold; " text-rendering="auto" clip-path="url(#clip-0)">0,25</text></g><line x1="815.45" y1="419" x2="815.45" y2="414" style="stroke-width: 1.0;stroke: rgb(192,208,224);stroke-opacity: 1;" transform="matrix(1,0,0,1,0,0)" clip-path="url(#clip-0)"/><g transform="matrix(1,0,0,1,0,0)"><text x="870.42" y="430.06" style="fill: rgb(102,102,102); font-family: Lucida Sans Unicode; font-size: 11px; font-weight: bold; " text-rendering="auto" clip-path="url(#clip-0)">0,30</text></g><line x1="884.42" y1="419" x2="884.42" y2="414" style="stroke-width: 1.0;stroke: rgb(192,208,224);stroke-opacity: 1;" transform="matrix(1,0,0,1,0,0)" clip-path="url(#clip-0)"/><g transform="matrix(1,0,0,1,0,0)"><text x="939.39" y="430.06" style="fill: rgb(102,102,102); font-family: Lucida Sans Unicode; font-size: 11px; font-weight: bold; " text-rendering="auto" clip-path="url(#clip-0)">0,35</text></g><line x1="953.39" y1="419" x2="953.39" y2="414" style="stroke-width: 1.0;stroke: rgb(192,208,224);stroke-opacity: 1;" transform="matrix(1,0,0,1,0,0)" clip-path="url(#clip-0)"/><g transform="matrix(1,0,0,1,0,0)"><text x="478" y="454.35" style="fill: rgb(77,117,158); font-family: Lucida Sans Unicode; font-size: 15px; font-weight: bold; " text-rendering="auto" clip-path="url(#clip-0)">Axe 1 (33,68%)</text></g><line x1="91" y1="72" x2="91" y2="414" style="stroke-width: 1.0;stroke: rgb(192,208,224);stroke-opacity: 1;" transform="matrix(1,0,0,1,0,0)" clip-path="url(#clip-0)"/><g transform="matrix(1,0,0,1,0,0)"><text x="42" y="396.26" style="fill: rgb(102,102,102); font-family: Lucida Sans Unicode; font-size: 11px; font-weight: bold; " text-rendering="auto" clip-path="url(#clip-0)">-0,150</text></g><line x1="86" y1="392.65" x2="91" y2="392.65" style="stroke-width: 1.0;stroke: rgb(192,208,224);stroke-opacity: 1;" transform="matrix(1,0,0,1,0,0)" clip-path="url(#clip-0)"/><g transform="matrix(1,0,0,1,0,0)"><text x="42" y="370.98" style="fill: rgb(102,102,102); font-family: Lucida Sans Unicode; font-size: 11px; font-weight: bold; " text-rendering="auto" clip-path="url(#clip-0)">-0,125</text></g><line x1="86" y1="367.37" x2="91" y2="367.37" style="stroke-width: 1.0;stroke: rgb(192,208,224);stroke-opacity: 1;" transform="matrix(1,0,0,1,0,0)" clip-path="url(#clip-0)"/><g transform="matrix(1,0,0,1,0,0)"><text x="42" y="345.7" style="fill: rgb(102,102,102); font-family: Lucida Sans Unicode; font-size: 11px; font-weight: bold; " text-rendering="auto" clip-path="url(#clip-0)">-0,100</text></g><line x1="86" y1="342.08" x2="91" y2="342.08" style="stroke-width: 1.0;stroke: rgb(192,208,224);stroke-opacity: 1;" transform="matrix(1,0,0,1,0,0)" clip-path="url(#clip-0)"/><g transform="matrix(1,0,0,1,0,0)"><text x="42" y="320.41" style="fill: rgb(102,102,102); font-family: Lucida Sans Unicode; font-size: 11px; font-weight: bold; " text-rendering="auto" clip-path="url(#clip-0)">-0,075</text></g><line x1="86" y1="316.8" x2="91" y2="316.8" style="stroke-width: 1.0;stroke: rgb(192,208,224);stroke-opacity: 1;" transform="matrix(1,0,0,1,0,0)" clip-path="url(#clip-0)"/><g transform="matrix(1,0,0,1,0,0)"><text x="42" y="295.13" style="fill: rgb(102,102,102); font-family: Lucida Sans Unicode; font-size: 11px; font-weight: bold; " text-rendering="auto" clip-path="url(#clip-0)">-0,050</text></g><line x1="86" y1="291.52" x2="91" y2="291.52" style="stroke-width: 1.0;stroke: rgb(192,208,224);stroke-opacity: 1;" transform="matrix(1,0,0,1,0,0)" clip-path="url(#clip-0)"/><g transform="matrix(1,0,0,1,0,0)"><text x="42" y="269.85" style="fill: rgb(102,102,102); font-family: Lucida Sans Unicode; font-size: 11px; font-weight: bold; " text-rendering="auto" clip-path="url(#clip-0)">-0,025</text></g><line x1="86" y1="266.24" x2="91" y2="266.24" style="stroke-width: 1.0;stroke: rgb(192,208,224);stroke-opacity: 1;" transform="matrix(1,0,0,1,0,0)" clip-path="url(#clip-0)"/><g transform="matrix(1,0,0,1,0,0)"><text x="49" y="244.57" style="fill: rgb(102,102,102); font-family: Lucida Sans Unicode; font-size: 11px; font-weight: bold; " text-rendering="auto" clip-path="url(#clip-0)">0,000</text></g><line x1="86" y1="240.96" x2="91" y2="240.96" style="stroke-width: 1.0;stroke: rgb(192,208,224);stroke-opacity: 1;" transform="matrix(1,0,0,1,0,0)" clip-path="url(#clip-0)"/><g transform="matrix(1,0,0,1,0,0)"><text x="49" y="219.29" style="fill: rgb(102,102,102); font-family: Lucida Sans Unicode; font-size: 11px; font-weight: bold; " text-rendering="auto" clip-path="url(#clip-0)">0,025</text></g><line x1="86" y1="215.67" x2="91" y2="215.67" style="stroke-width: 1.0;stroke: rgb(192,208,224);stroke-opacity: 1;" transform="matrix(1,0,0,1,0,0)" clip-path="url(#clip-0)"/><g transform="matrix(1,0,0,1,0,0)"><text x="49" y="194" style="fill: rgb(102,102,102); font-family: Lucida Sans Unicode; font-size: 11px; font-weight: bold; " text-rendering="auto" clip-path="url(#clip-0)">0,050</text></g><line x1="86" y1="190.39" x2="91" y2="190.39" style="stroke-width: 1.0;stroke: rgb(192,208,224);stroke-opacity: 1;" transform="matrix(1,0,0,1,0,0)" clip-path="url(#clip-0)"/><g transform="matrix(1,0,0,1,0,0)"><text x="49" y="168.72" style="fill: rgb(102,102,102); font-family: Lucida Sans Unicode; font-size: 11px; font-weight: bold; " text-rendering="auto" clip-path="url(#clip-0)">0,075</text></g><line x1="86" y1="165.11" x2="91" y2="165.11" style="stroke-width: 1.0;stroke: rgb(192,208,224);stroke-opacity: 1;" transform="matrix(1,0,0,1,0,0)" clip-path="url(#clip-0)"/><g transform="matrix(1,0,0,1,0,0)"><text x="49" y="143.44" style="fill: rgb(102,102,102); font-family: Lucida Sans Unicode; font-size: 11px; font-weight: bold; " text-rendering="auto" clip-path="url(#clip-0)">0,100</text></g><line x1="86" y1="139.83" x2="91" y2="139.83" style="stroke-width: 1.0;stroke: rgb(192,208,224);stroke-opacity: 1;" transform="matrix(1,0,0,1,0,0)" clip-path="url(#clip-0)"/><g transform="matrix(1,0,0,1,0,0)"><text x="49" y="118.16" style="fill: rgb(102,102,102); font-family: Lucida Sans Unicode; font-size: 11px; font-weight: bold; " text-rendering="auto" clip-path="url(#clip-0)">0,125</text></g><line x1="86" y1="114.54" x2="91" y2="114.54" style="stroke-width: 1.0;stroke: rgb(192,208,224);stroke-opacity: 1;" transform="matrix(1,0,0,1,0,0)" clip-path="url(#clip-0)"/><g transform="matrix(1,0,0,1,0,0)"><text x="49" y="92.87" style="fill: rgb(102,102,102); font-family: Lucida Sans Unicode; font-size: 11px; font-weight: bold; " text-rendering="auto" clip-path="url(#clip-0)">0,150</text></g><line x1="86" y1="89.26" x2="91" y2="89.26" style="stroke-width: 1.0;stroke: rgb(192,208,224);stroke-opacity: 1;" transform="matrix(1,0,0,1,0,0)" clip-path="url(#clip-0)"/><g transform="matrix(0,-1,1,0,-217.524658,268.475342)"><text x="-36.02" y="247.93" style="fill: rgb(77,117,158); font-family: Lucida Sans Unicode; font-size: 15px; font-weight: bold; " text-rendering="auto" clip-path="url(#clip-1)">Axe 2 (19,88%)</text></g><line x1="125.77" y1="72" x2="125.77" y2="414" style="stroke-width: 0.5;stroke: rgb(192,192,192);stroke-opacity: 1;stroke-dasharray: 2.0, 2.0;" transform="matrix(1,0,0,1,0,0)" clip-path="url(#clip-2)"/><line x1="194.73" y1="72" x2="194.73" y2="414" style="stroke-width: 0.5;stroke: rgb(192,192,192);stroke-opacity: 1;stroke-dasharray: 2.0, 2.0;" transform="matrix(1,0,0,1,0,0)" clip-path="url(#clip-2)"/><line x1="263.7" y1="72" x2="263.7" y2="414" style="stroke-width: 0.5;stroke: rgb(192,192,192);stroke-opacity: 1;stroke-dasharray: 2.0, 2.0;" transform="matrix(1,0,0,1,0,0)" clip-path="url(#clip-2)"/><line x1="332.67" y1="72" x2="332.67" y2="414" style="stroke-width: 0.5;stroke: rgb(192,192,192);stroke-opacity: 1;stroke-dasharray: 2.0, 2.0;" transform="matrix(1,0,0,1,0,0)" clip-path="url(#clip-2)"/><line x1="401.64" y1="72" x2="401.64" y2="414" style="stroke-width: 0.5;stroke: rgb(192,192,192);stroke-opacity: 1;stroke-dasharray: 2.0, 2.0;" transform="matrix(1,0,0,1,0,0)" clip-path="url(#clip-2)"/><line x1="470.61" y1="72" x2="470.61" y2="414" style="stroke-width: 0.5;stroke: rgb(192,192,192);stroke-opacity: 1;stroke-dasharray: 2.0, 2.0;" transform="matrix(1,0,0,1,0,0)" clip-path="url(#clip-2)"/><line x1="539.58" y1="72" x2="539.58" y2="414" style="stroke-width: 0.5;stroke: rgb(192,192,192);stroke-opacity: 1;stroke-dasharray: 2.0, 2.0;" transform="matrix(1,0,0,1,0,0)" clip-path="url(#clip-2)"/><line x1="608.54" y1="72" x2="608.54" y2="414" style="stroke-width: 0.5;stroke: rgb(192,192,192);stroke-opacity: 1;stroke-dasharray: 2.0, 2.0;" transform="matrix(1,0,0,1,0,0)" clip-path="url(#clip-2)"/><line x1="677.51" y1="72" x2="677.51" y2="414" style="stroke-width: 0.5;stroke: rgb(192,192,192);stroke-opacity: 1;stroke-dasharray: 2.0, 2.0;" transform="matrix(1,0,0,1,0,0)" clip-path="url(#clip-2)"/><line x1="746.48" y1="72" x2="746.48" y2="414" style="stroke-width: 0.5;stroke: rgb(192,192,192);stroke-opacity: 1;stroke-dasharray: 2.0, 2.0;" transform="matrix(1,0,0,1,0,0)" clip-path="url(#clip-2)"/><line x1="815.45" y1="72" x2="815.45" y2="414" style="stroke-width: 0.5;stroke: rgb(192,192,192);stroke-opacity: 1;stroke-dasharray: 2.0, 2.0;" transform="matrix(1,0,0,1,0,0)" clip-path="url(#clip-2)"/><line x1="884.42" y1="72" x2="884.42" y2="414" style="stroke-width: 0.5;stroke: rgb(192,192,192);stroke-opacity: 1;stroke-dasharray: 2.0, 2.0;" transform="matrix(1,0,0,1,0,0)" clip-path="url(#clip-2)"/><line x1="953.39" y1="72" x2="953.39" y2="414" style="stroke-width: 0.5;stroke: rgb(192,192,192);stroke-opacity: 1;stroke-dasharray: 2.0, 2.0;" transform="matrix(1,0,0,1,0,0)" clip-path="url(#clip-2)"/><line x1="470.61" y1="72" x2="470.61" y2="414" style="stroke-width: 0.5;stroke: rgb(134,145,156);stroke-opacity: 1;" transform="matrix(1,0,0,1,0,0)" clip-path="url(#clip-2)"/><line x1="91" y1="392.65" x2="988" y2="392.65" style="stroke-width: 0.5;stroke: rgb(192,192,192);stroke-opacity: 1;stroke-dasharray: 2.0, 2.0;" transform="matrix(1,0,0,1,0,0)" clip-path="url(#clip-2)"/><line x1="91" y1="367.37" x2="988" y2="367.37" style="stroke-width: 0.5;stroke: rgb(192,192,192);stroke-opacity: 1;stroke-dasharray: 2.0, 2.0;" transform="matrix(1,0,0,1,0,0)" clip-path="url(#clip-2)"/><line x1="91" y1="342.08" x2="988" y2="342.08" style="stroke-width: 0.5;stroke: rgb(192,192,192);stroke-opacity: 1;stroke-dasharray: 2.0, 2.0;" transform="matrix(1,0,0,1,0,0)" clip-path="url(#clip-2)"/><line x1="91" y1="316.8" x2="988" y2="316.8" style="stroke-width: 0.5;stroke: rgb(192,192,192);stroke-opacity: 1;stroke-dasharray: 2.0, 2.0;" transform="matrix(1,0,0,1,0,0)" clip-path="url(#clip-2)"/><line x1="91" y1="291.52" x2="988" y2="291.52" style="stroke-width: 0.5;stroke: rgb(192,192,192);stroke-opacity: 1;stroke-dasharray: 2.0, 2.0;" transform="matrix(1,0,0,1,0,0)" clip-path="url(#clip-2)"/><line x1="91" y1="266.24" x2="988" y2="266.24" style="stroke-width: 0.5;stroke: rgb(192,192,192);stroke-opacity: 1;stroke-dasharray: 2.0, 2.0;" transform="matrix(1,0,0,1,0,0)" clip-path="url(#clip-2)"/><line x1="91" y1="215.67" x2="988" y2="215.67" style="stroke-width: 0.5;stroke: rgb(192,192,192);stroke-opacity: 1;stroke-dasharray: 2.0, 2.0;" transform="matrix(1,0,0,1,0,0)" clip-path="url(#clip-2)"/><line x1="91" y1="190.39" x2="988" y2="190.39" style="stroke-width: 0.5;stroke: rgb(192,192,192);stroke-opacity: 1;stroke-dasharray: 2.0, 2.0;" transform="matrix(1,0,0,1,0,0)" clip-path="url(#clip-2)"/><line x1="91" y1="165.11" x2="988" y2="165.11" style="stroke-width: 0.5;stroke: rgb(192,192,192);stroke-opacity: 1;stroke-dasharray: 2.0, 2.0;" transform="matrix(1,0,0,1,0,0)" clip-path="url(#clip-2)"/><line x1="91" y1="139.83" x2="988" y2="139.83" style="stroke-width: 0.5;stroke: rgb(192,192,192);stroke-opacity: 1;stroke-dasharray: 2.0, 2.0;" transform="matrix(1,0,0,1,0,0)" clip-path="url(#clip-2)"/><line x1="91" y1="114.54" x2="988" y2="114.54" style="stroke-width: 0.5;stroke: rgb(192,192,192);stroke-opacity: 1;stroke-dasharray: 2.0, 2.0;" transform="matrix(1,0,0,1,0,0)" clip-path="url(#clip-2)"/><line x1="91" y1="89.26" x2="988" y2="89.26" style="stroke-width: 0.5;stroke: rgb(192,192,192);stroke-opacity: 1;stroke-dasharray: 2.0, 2.0;" transform="matrix(1,0,0,1,0,0)" clip-path="url(#clip-2)"/><line x1="91" y1="240.96" x2="988" y2="240.96" style="stroke-width: 0.5;stroke: rgb(134,145,156);stroke-opacity: 1;" transform="matrix(1,0,0,1,0,0)" clip-path="url(#clip-2)"/><g style="fill: rgb(255,0,0);fill-opacity: 0.352941; stroke: none" transform="matrix(1,0,0,1,0,0)" clip-path="url(#clip-2)"><path d="M 740.71 83.47 L 744.79 87.55 L 740.71 91.63 L 736.63 87.55 M 740.71 83.47"/></g><g style="stroke-width: 1.0;stroke: rgb(255,0,0);stroke-opacity: 0.352941;; fill: none" transform="matrix(1,0,0,1,0,0)" clip-path="url(#clip-2)"><path d="M 740.71 83.47 L 744.79 87.55 L 740.71 91.63 L 736.63 87.55 M 740.71 83.47"/></g><g transform="matrix(1,0,0,1,0,0)"><text x="739.21" y="79.24" style="fill: rgb(51,51,51); font-family: Lucida Sans Unicode; font-size: 11px; " text-rendering="auto" clip-path="url(#clip-2)">1</text></g><g style="fill: rgb(255,0,0);fill-opacity: 0.352941; stroke: none" transform="matrix(1,0,0,1,0,0)" clip-path="url(#clip-2)"><path d="M 533.55 233.09 L 537.63 237.17 L 533.55 241.25 L 529.47 237.17 M 533.55 233.09"/></g><g style="stroke-width: 1.0;stroke: rgb(255,0,0);stroke-opacity: 0.352941;; fill: none" transform="matrix(1,0,0,1,0,0)" clip-path="url(#clip-2)"><path d="M 533.55 233.09 L 537.63 237.17 L 533.55 241.25 L 529.47 237.17 M 533.55 233.09"/></g><g transform="matrix(1,0,0,1,0,0)"><text x="528.55" y="228.87" style="fill: rgb(51,51,51); font-family: Lucida Sans Unicode; font-size: 11px; " text-rendering="auto" clip-path="url(#clip-2)">10</text></g><g style="fill: rgb(255,0,0);fill-opacity: 0.352941; stroke: none" transform="matrix(1,0,0,1,0,0)" clip-path="url(#clip-2)"><path d="M 743.65 131.17 L 747.73 135.25 L 743.65 139.33 L 739.57 135.25 M 743.65 131.17"/></g><g style="stroke-width: 1.0;stroke: rgb(255,0,0);stroke-opacity: 0.352941;; fill: none" transform="matrix(1,0,0,1,0,0)" clip-path="url(#clip-2)"><path d="M 743.65 131.17 L 747.73 135.25 L 743.65 139.33 L 739.57 135.25 M 743.65 131.17"/></g><g transform="matrix(1,0,0,1,0,0)"><text x="742.15" y="126.94" style="fill: rgb(51,51,51); font-family: Lucida Sans Unicode; font-size: 11px; " text-rendering="auto" clip-path="url(#clip-2)">2</text></g><g style="fill: rgb(255,0,0);fill-opacity: 0.352941; stroke: none" transform="matrix(1,0,0,1,0,0)" clip-path="url(#clip-2)"><path d="M 789.97 218.8 L 794.05 222.88 L 789.97 226.96 L 785.89 222.88 M 789.97 218.8"/></g><g style="stroke-width: 1.0;stroke: rgb(255,0,0);stroke-opacity: 0.352941;; fill: none" transform="matrix(1,0,0,1,0,0)" clip-path="url(#clip-2)"><path d="M 789.97 218.8 L 794.05 222.88 L 789.97 226.96 L 785.89 222.88 M 789.97 218.8"/></g><g transform="matrix(1,0,0,1,0,0)"><text x="788.47" y="214.58" style="fill: rgb(51,51,51); font-family: Lucida Sans Unicode; font-size: 11px; " text-rendering="auto" clip-path="url(#clip-2)">3</text></g><g style="fill: rgb(255,0,0);fill-opacity: 0.352941; stroke: none" transform="matrix(1,0,0,1,0,0)" clip-path="url(#clip-2)"><path d="M 592.79 176.43 L 596.87 180.51 L 592.79 184.59 L 588.71 180.51 M 592.79 176.43"/></g><g style="stroke-width: 1.0;stroke: rgb(255,0,0);stroke-opacity: 0.352941;; fill: none" transform="matrix(1,0,0,1,0,0)" clip-path="url(#clip-2)"><path d="M 592.79 176.43 L 596.87 180.51 L 592.79 184.59 L 588.71 180.51 M 592.79 176.43"/></g><g transform="matrix(1,0,0,1,0,0)"><text x="591.29" y="172.21" style="fill: rgb(51,51,51); font-family: Lucida Sans Unicode; font-size: 11px; " text-rendering="auto" clip-path="url(#clip-2)">4</text></g><g style="fill: rgb(255,0,0);fill-opacity: 0.352941; stroke: none" transform="matrix(1,0,0,1,0,0)" clip-path="url(#clip-2)"><path d="M 508.79 245.43 L 512.87 249.51 L 508.79 253.59 L 504.71 249.51 M 508.79 245.43"/></g><g style="stroke-width: 1.0;stroke: rgb(255,0,0);stroke-opacity: 0.352941;; fill: none" transform="matrix(1,0,0,1,0,0)" clip-path="url(#clip-2)"><path d="M 508.79 245.43 L 512.87 249.51 L 508.79 253.59 L 504.71 249.51 M 508.79 245.43"/></g><g transform="matrix(1,0,0,1,0,0)"><text x="507.29" y="241.21" style="fill: rgb(51,51,51); font-family: Lucida Sans Unicode; font-size: 11px; " text-rendering="auto" clip-path="url(#clip-2)">5</text></g><g style="fill: rgb(255,0,0);fill-opacity: 0.352941; stroke: none" transform="matrix(1,0,0,1,0,0)" clip-path="url(#clip-2)"><path d="M 526.28 351.77 L 530.36 355.85 L 526.28 359.93 L 522.2 355.85 M 526.28 351.77"/></g><g style="stroke-width: 1.0;stroke: rgb(255,0,0);stroke-opacity: 0.352941;; fill: none" transform="matrix(1,0,0,1,0,0)" clip-path="url(#clip-2)"><path d="M 526.28 351.77 L 530.36 355.85 L 526.28 359.93 L 522.2 355.85 M 526.28 351.77"/></g><g transform="matrix(1,0,0,1,0,0)"><text x="524.78" y="347.54" style="fill: rgb(51,51,51); font-family: Lucida Sans Unicode; font-size: 11px; " text-rendering="auto" clip-path="url(#clip-2)">6</text></g><g style="fill: rgb(255,0,0);fill-opacity: 0.352941; stroke: none" transform="matrix(1,0,0,1,0,0)" clip-path="url(#clip-2)"><path d="M 422.1 394.37 L 426.18 398.45 L 422.1 402.53 L 418.02 398.45 M 422.1 394.37"/></g><g style="stroke-width: 1.0;stroke: rgb(255,0,0);stroke-opacity: 0.352941;; fill: none" transform="matrix(1,0,0,1,0,0)" clip-path="url(#clip-2)"><path d="M 422.1 394.37 L 426.18 398.45 L 422.1 402.53 L 418.02 398.45 M 422.1 394.37"/></g><g transform="matrix(1,0,0,1,0,0)"><text x="420.6" y="390.15" style="fill: rgb(51,51,51); font-family: Lucida Sans Unicode; font-size: 11px; " text-rendering="auto" clip-path="url(#clip-2)">7</text></g><g style="fill: rgb(255,0,0);fill-opacity: 0.352941; stroke: none" transform="matrix(1,0,0,1,0,0)" clip-path="url(#clip-2)"><path d="M 291.8 159.28 L 295.88 163.36 L 291.8 167.44 L 287.72 163.36 M 291.8 159.28"/></g><g style="stroke-width: 1.0;stroke: rgb(255,0,0);stroke-opacity: 0.352941;; fill: none" transform="matrix(1,0,0,1,0,0)" clip-path="url(#clip-2)"><path d="M 291.8 159.28 L 295.88 163.36 L 291.8 167.44 L 287.72 163.36 M 291.8 159.28"/></g><g transform="matrix(1,0,0,1,0,0)"><text x="290.3" y="155.06" style="fill: rgb(51,51,51); font-family: Lucida Sans Unicode; font-size: 11px; " text-rendering="auto" clip-path="url(#clip-2)">8</text></g><g style="fill: rgb(255,0,0);fill-opacity: 0.352941; stroke: none" transform="matrix(1,0,0,1,0,0)" clip-path="url(#clip-2)"><path d="M 193.03 155.98 L 197.11 160.06 L 193.03 164.14 L 188.95 160.06 M 193.03 155.98"/></g><g style="stroke-width: 1.0;stroke: rgb(255,0,0);stroke-opacity: 0.352941;; fill: none" transform="matrix(1,0,0,1,0,0)" clip-path="url(#clip-2)"><path d="M 193.03 155.98 L 197.11 160.06 L 193.03 164.14 L 188.95 160.06 M 193.03 155.98"/></g><g transform="matrix(1,0,0,1,0,0)"><text x="191.53" y="151.75" style="fill: rgb(51,51,51); font-family: Lucida Sans Unicode; font-size: 11px; " text-rendering="auto" clip-path="url(#clip-2)">9</text></g><line x1="165.44" y1="414" x2="165.44" y2="72" style="stroke-width: 0.5;stroke: rgb(128,128,128);stroke-opacity: 1;stroke-dasharray: 2.0;" transform="matrix(1,0,0,1,0,0)" clip-path="url(#clip-2)"/><line x1="817.56" y1="414" x2="817.56" y2="72" style="stroke-width: 0.5;stroke: rgb(128,128,128);stroke-opacity: 1;stroke-dasharray: 2.0;" transform="matrix(1,0,0,1,0,0)" clip-path="url(#clip-2)"/></svg>
